<svg xmlns="http://www.w3.org/2000/svg" width="456" height="456" version="1.0" viewBox="0 0 342 342"><defs><clipPath id="a"><path d="M232 189h10v13.809h-10Zm0 0"/></clipPath><clipPath id="b"><path d="M44.816 163H66v27H44.816Zm0 0"/></clipPath><clipPath id="c"><path d="M86 137.543h22V164H86Zm0 0"/></clipPath><clipPath id="d"><path d="M65 137.543h22V164H65Zm0 0"/></clipPath><clipPath id="e"><path d="M44.816 137.543H66V164H44.816Zm0 0"/></clipPath></defs><path d="M228.148 199.344q-.95-.002-1.695-.383a3.1 3.1 0 0 1-1.234-1.168h-.125l-.16 1.336h-1.25v-12.895h1.574v4.692h.105q.322-.502.75-.805c.285-.203.61-.351.965-.445a4.3 4.3 0 0 1 1.14-.145q1.09 0 1.915.516c.547.348.972.875 1.273 1.59.305.715.457 1.62.457 2.73q0 1.747-.445 2.844-.45 1.097-1.27 1.613-.82.521-2 .52m-.375-1.371q.804-.001 1.348-.325.544-.32.832-1.058.287-.74.285-1.953v-.375q0-1.179-.27-1.918-.262-.738-.82-1.09-.555-.346-1.43-.348a2.8 2.8 0 0 0-.945.16q-.445.163-.793.555-.35.394-.535 1.05c-.125.442-.187.981-.187 1.626v.285c0 .734.086 1.356.258 1.856q.258.746.82 1.14.562.392 1.441.39Zm0 0"/><g clip-path="url(#a)"><path d="M234.578 202.379c-.285 0-.531-.024-.742-.063q-.312-.064-.418-.082v-1.14h.785c.285 0 .567-.063.84-.18q.408-.176.766-.605.357-.43.609-1.18l-3.645-9.383h1.645l1.875 4.836.297.828.336 1.008c.113.348.203.648.277.91h.106q.074-.285.18-.64.105-.357.222-.743.117-.38.234-.73.112-.345.188-.613l1.59-4.852h1.59l-3.18 9.113q-.266.768-.59 1.418c-.215.438-.45.809-.715 1.117a2.7 2.7 0 0 1-.945.723c-.367.172-.805.258-1.305.258m0 0"/></g><path d="M253.188 189.797c0-1.176-.583-1.793-1.981-1.793h-1.785v3.601h1.785c1.398 0 1.98-.597 1.98-1.808m3.906.039c0 1.441-.723 2.445-2.074 3.219l2.988 5.965h-4.188l-2.39-4.95h-2.008v4.95h-3.73v-13.48h6.101c3.648 0 5.3 1.753 5.3 4.296m27.728-4.266-1.457 2.852h4.758v10.629h3.75v-10.63h4.098v-2.85Zm-3.273-.015h2.043l-8.024 6.566v-2.285l5.985-4.281Zm0 0"/><path d="M281.531 185.555h2.13l-3.095 6.023-3.378 1.527Zm0 0"/><path d="m277.184 193.105 3.378-1.527 3.676 7.434h-4.203l-2.851-5.903Zm-1.547-7.539h-3.73v13.461h3.73Zm0 0"/><path fill-rule="evenodd" d="M264.398 185.285c-1.921 0-3.476.637-4.644 1.887-1.164 1.254-1.746 2.95-1.746 5.121v.039q0 3.263 1.746 5.145c1.168 1.25 2.719 1.867 4.644 1.867s3.477-.617 4.625-1.867q1.747-1.882 1.747-5.145v-.039c0-2.176-.582-3.867-1.747-5.121-1.148-1.25-2.699-1.887-4.625-1.887m-.02 2.742c-.784 0-1.417.399-1.894 1.18-.472.781-.71 1.844-.71 3.203v.024q.001 2.04.71 3.21c.477.786 1.11 1.168 1.895 1.168.789 0 1.418-.382 1.887-1.167q.714-1.173.714-3.211v-.024c0-1.36-.238-2.422-.714-3.203-.47-.781-1.102-1.18-1.887-1.18m0 0"/><path d="M86.797 176.844v13.101l20.992-13.101v-13.098Zm-20.988 0v13.101l20.988-13.101v-13.098Zm0 0"/><g clip-path="url(#b)"><path d="M44.816 176.844v13.101l20.993-13.101v-13.098Zm0 0"/></g><g clip-path="url(#c)"><path d="m107.79 137.543-20.993 13.102v13.097l20.992-13.097Zm0 0"/></g><g clip-path="url(#d)"><path d="m86.797 137.543-20.988 13.102v13.097l20.988-13.097Zm0 0"/></g><g clip-path="url(#e)"><path d="m65.809 137.543-20.993 13.102v13.097l20.993-13.097Zm0 0"/></g><path d="M151.41 164.531v12.406h-5.37v-11.996c0-2.43-1.157-3.625-3.384-3.625q-2.484 0-4.347 2.102v13.527h-5.36v-12c0-2.433-1.113-3.629-3.344-3.629-1.69 0-3.136.743-4.375 2.227v13.402h-5.41v-19.793h5.035v1.86a9.7 9.7 0 0 1 6.317-2.227c2.726 0 4.707.91 5.863 2.723q3.281-2.724 7.184-2.723c4.668-.004 7.187 2.727 7.187 7.746Zm23.594-2.886a10.815 10.815 0 0 1-1.691 12.906 10.13 10.13 0 0 1-6.938 2.847 7.63 7.63 0 0 1-5.121-1.816v10.598h-5.395v-29.032h5.246v1.528a8.15 8.15 0 0 1 5.278-1.899 9.9 9.9 0 0 1 8.62 4.864ZM171 167.004c0-3.504-2.484-5.691-5.277-5.691a5.93 5.93 0 0 0-4.543 2.023v7.547a5.73 5.73 0 0 0 4.347 1.937c3.04 0 5.473-2.183 5.473-5.812Zm28.121 9.937h-5.062v-1.687a7.53 7.53 0 0 1-5.454 2.144 9.78 9.78 0 0 1-8.585-4.96 10.07 10.07 0 0 1-1.407-5.364c0-3.996 2.067-7.34 5.121-9.031a9.84 9.84 0 0 1 4.914-1.277 7.52 7.52 0 0 1 5.368 2.062v-1.691h5.117l-.012 19.808Zm-5.324-6.02v-7.667a5.9 5.9 0 0 0-4.422-1.941c-2.89 0-5.363 2.226-5.363 5.773 0 3.543 2.433 5.734 5.324 5.734a5.73 5.73 0 0 0 4.46-1.898m14.989-13.77v1.813c1.606-1.61 3.383-2.188 6.438-2.188v5.118a5 5 0 0 0-1.485-.165 6.1 6.1 0 0 0-4.582 2.266v12.95h-5.41v-19.794Zm22.738-.004v4.457h-4.46v15.34h-5.372v-15.34h-4.164v-4.457h4.164v-6.593h5.371v6.593Zm3.043-8.082h5.657v5.446h-5.657Zm5.532 27.875v-19.793h-5.407v19.793Zm22.738-4c-1.899 2.723-5.117 4.414-8.793 4.414-3.883 0-7.305-1.816-9.207-4.964-2.918-4.93-1.281-11.29 3.656-14.203q.089-.053.184-.106a11.06 11.06 0 0 1 5.328-1.32c3.918 0 6.851 1.484 8.793 4.496l-4.133 2.554c-1.152-1.648-2.68-2.48-4.621-2.48-3.137 0-5.242 2.434-5.242 5.816 0 3.38 2.023 5.606 5.203 5.606a5.87 5.87 0 0 0 4.871-2.43Zm3.551-25.648h5.367v29.652h-5.367Zm23.945 23.16a6.24 6.24 0 0 1-4.969 2.277c-2.793 0-4.785-1.523-5.199-4.41h15.234q.05-.411.04-.824c0-6.559-4.086-10.766-10.075-10.766a10.5 10.5 0 0 0-5.488 1.403c-3.223 1.86-4.996 5.113-4.996 8.949a10.3 10.3 0 0 0 2.848 7.215c1.777 1.863 4.543 3.008 7.636 3.008 3.637 0 6.774-1.563 8.758-4.368l-3.785-2.488Zm-4.832-9.305c2.516 0 4.082 1.196 4.746 3.63h-9.863c.738-2.356 2.512-3.633 5.117-3.633Zm0 0"/></svg>