<svg xmlns="http://www.w3.org/2000/svg" xmlns:xlink="http://www.w3.org/1999/xlink" width="456" zoomAndPan="magnify" viewBox="0 0 342 341.999987" height="456" preserveAspectRatio="xMidYMid meet" version="1.0"><defs><clipPath id="9210fc973b"><path d="M 232 189 L 242 189 L 242 202.808594 L 232 202.808594 Z M 232 189 " clip-rule="nonzero"/></clipPath><clipPath id="e4c154e903"><path d="M 44.816406 163 L 66 163 L 66 190 L 44.816406 190 Z M 44.816406 163 " clip-rule="nonzero"/></clipPath><clipPath id="253246e03d"><path d="M 86 137.542969 L 108 137.542969 L 108 164 L 86 164 Z M 86 137.542969 " clip-rule="nonzero"/></clipPath><clipPath id="797e0a60b0"><path d="M 65 137.542969 L 87 137.542969 L 87 164 L 65 164 Z M 65 137.542969 " clip-rule="nonzero"/></clipPath><clipPath id="064c24910c"><path d="M 44.816406 137.542969 L 66 137.542969 L 66 164 L 44.816406 164 Z M 44.816406 137.542969 " clip-rule="nonzero"/></clipPath></defs><path fill="#000000" d="M 228.148438 199.34375 C 227.515625 199.34375 226.949219 199.214844 226.453125 198.960938 C 225.953125 198.703125 225.539062 198.316406 225.21875 197.792969 L 225.09375 197.792969 L 224.933594 199.128906 L 223.683594 199.128906 L 223.683594 186.234375 L 225.257812 186.234375 L 225.257812 190.925781 L 225.363281 190.925781 C 225.578125 190.589844 225.828125 190.324219 226.113281 190.121094 C 226.398438 189.917969 226.722656 189.769531 227.078125 189.675781 C 227.433594 189.578125 227.816406 189.53125 228.21875 189.53125 C 228.945312 189.53125 229.582031 189.703125 230.132812 190.046875 C 230.679688 190.394531 231.105469 190.921875 231.40625 191.636719 C 231.710938 192.351562 231.863281 193.257812 231.863281 194.367188 C 231.863281 195.53125 231.714844 196.480469 231.417969 197.210938 C 231.117188 197.941406 230.695312 198.480469 230.148438 198.824219 C 229.601562 199.171875 228.933594 199.34375 228.148438 199.34375 Z M 227.773438 197.972656 C 228.308594 197.972656 228.757812 197.863281 229.121094 197.648438 C 229.484375 197.433594 229.761719 197.082031 229.953125 196.589844 C 230.144531 196.097656 230.238281 195.445312 230.238281 194.636719 L 230.238281 194.261719 C 230.238281 193.476562 230.148438 192.835938 229.96875 192.34375 C 229.792969 191.851562 229.519531 191.488281 229.148438 191.253906 C 228.777344 191.023438 228.300781 190.90625 227.71875 190.90625 C 227.386719 190.90625 227.070312 190.960938 226.773438 191.066406 C 226.476562 191.175781 226.210938 191.359375 225.980469 191.621094 C 225.746094 191.882812 225.570312 192.234375 225.445312 192.671875 C 225.320312 193.113281 225.257812 193.652344 225.257812 194.296875 L 225.257812 194.582031 C 225.257812 195.316406 225.34375 195.9375 225.515625 196.4375 C 225.6875 196.933594 225.960938 197.316406 226.335938 197.578125 C 226.710938 197.839844 227.191406 197.96875 227.777344 197.96875 Z M 227.773438 197.972656 " fill-opacity="1" fill-rule="nonzero"/><g clip-path="url(#9210fc973b)"><path fill="#000000" d="M 234.578125 202.378906 C 234.292969 202.378906 234.046875 202.355469 233.835938 202.316406 C 233.628906 202.273438 233.488281 202.246094 233.417969 202.234375 L 233.417969 201.09375 L 234.203125 201.09375 C 234.488281 201.09375 234.769531 201.03125 235.042969 200.914062 C 235.316406 200.796875 235.570312 200.59375 235.808594 200.308594 C 236.046875 200.023438 236.25 199.628906 236.417969 199.128906 L 232.773438 189.746094 L 234.417969 189.746094 L 236.292969 194.582031 C 236.375 194.808594 236.472656 195.085938 236.589844 195.410156 C 236.699219 195.738281 236.8125 196.074219 236.925781 196.417969 C 237.039062 196.765625 237.128906 197.066406 237.203125 197.328125 L 237.308594 197.328125 C 237.359375 197.136719 237.417969 196.925781 237.488281 196.6875 C 237.558594 196.449219 237.632812 196.203125 237.710938 195.945312 C 237.789062 195.691406 237.867188 195.449219 237.945312 195.214844 C 238.019531 194.984375 238.082031 194.78125 238.132812 194.601562 L 239.722656 189.75 L 241.3125 189.75 L 238.132812 198.863281 C 237.957031 199.375 237.757812 199.847656 237.542969 200.28125 C 237.328125 200.71875 237.09375 201.089844 236.828125 201.398438 C 236.566406 201.707031 236.253906 201.949219 235.882812 202.121094 C 235.515625 202.292969 235.078125 202.378906 234.578125 202.378906 Z M 234.578125 202.378906 " fill-opacity="1" fill-rule="nonzero"/></g><path fill="#000000" d="M 253.1875 189.796875 C 253.1875 188.621094 252.605469 188.003906 251.207031 188.003906 L 249.421875 188.003906 L 249.421875 191.605469 L 251.207031 191.605469 C 252.605469 191.605469 253.1875 191.007812 253.1875 189.796875 Z M 257.09375 189.835938 C 257.09375 191.277344 256.371094 192.28125 255.019531 193.054688 L 258.007812 199.019531 L 253.820312 199.019531 L 251.429688 194.070312 L 249.421875 194.070312 L 249.421875 199.019531 L 245.691406 199.019531 L 245.691406 185.539062 L 251.792969 185.539062 C 255.441406 185.539062 257.09375 187.292969 257.09375 189.835938 Z M 257.09375 189.835938 " fill-opacity="1" fill-rule="nonzero"/><path fill="#000000" d="M 284.820312 185.570312 L 283.363281 188.421875 L 288.121094 188.421875 L 288.121094 199.050781 L 291.871094 199.050781 L 291.871094 188.421875 L 295.96875 188.421875 L 295.96875 185.570312 Z M 284.820312 185.570312 " fill-opacity="1" fill-rule="nonzero"/><path fill="#000000" d="M 281.546875 185.554688 L 283.589844 185.554688 L 275.566406 192.121094 L 275.566406 189.835938 L 281.550781 185.554688 Z M 281.546875 185.554688 " fill-opacity="1" fill-rule="nonzero"/><path fill="#000000" d="M 281.53125 185.554688 L 283.660156 185.554688 L 280.566406 191.578125 L 277.1875 193.105469 Z M 281.53125 185.554688 " fill-opacity="1" fill-rule="nonzero"/><path fill="#000000" d="M 277.183594 193.105469 L 280.5625 191.578125 L 284.238281 199.011719 L 280.035156 199.011719 L 277.183594 193.109375 Z M 277.183594 193.105469 " fill-opacity="1" fill-rule="nonzero"/><path fill="#000000" d="M 275.636719 185.566406 L 271.90625 185.566406 L 271.90625 199.027344 L 275.636719 199.027344 Z M 275.636719 185.566406 " fill-opacity="1" fill-rule="nonzero"/><path fill="#000000" d="M 264.398438 185.285156 C 262.476562 185.285156 260.921875 185.921875 259.753906 187.171875 C 258.589844 188.425781 258.007812 190.121094 258.007812 192.292969 L 258.007812 192.332031 C 258.007812 194.507812 258.589844 196.222656 259.753906 197.476562 C 260.921875 198.726562 262.472656 199.34375 264.398438 199.34375 C 266.324219 199.34375 267.875 198.726562 269.023438 197.476562 C 270.1875 196.222656 270.769531 194.507812 270.769531 192.332031 L 270.769531 192.292969 C 270.769531 190.117188 270.1875 188.425781 269.023438 187.171875 C 267.875 185.921875 266.324219 185.285156 264.398438 185.285156 Z M 264.378906 188.027344 C 263.59375 188.027344 262.960938 188.425781 262.484375 189.207031 C 262.011719 189.988281 261.773438 191.050781 261.773438 192.410156 L 261.773438 192.433594 C 261.773438 193.792969 262.011719 194.863281 262.484375 195.644531 C 262.960938 196.429688 263.59375 196.8125 264.378906 196.8125 C 265.167969 196.8125 265.796875 196.429688 266.265625 195.644531 C 266.742188 194.863281 266.980469 193.792969 266.980469 192.433594 L 266.980469 192.410156 C 266.980469 191.050781 266.742188 189.988281 266.265625 189.207031 C 265.796875 188.425781 265.164062 188.027344 264.378906 188.027344 Z M 264.378906 188.027344 " fill-opacity="1" fill-rule="evenodd"/><path fill="#000000" d="M 86.796875 176.84375 L 86.796875 189.945312 L 107.789062 176.84375 L 107.789062 163.746094 Z M 86.796875 176.84375 " fill-opacity="1" fill-rule="nonzero"/><path fill="#000000" d="M 65.808594 176.84375 L 65.808594 189.945312 L 86.796875 176.84375 L 86.796875 163.746094 Z M 65.808594 176.84375 " fill-opacity="1" fill-rule="nonzero"/><g clip-path="url(#e4c154e903)"><path fill="#000000" d="M 44.816406 176.84375 L 44.816406 189.945312 L 65.808594 176.84375 L 65.808594 163.746094 Z M 44.816406 176.84375 " fill-opacity="1" fill-rule="nonzero"/></g><g clip-path="url(#253246e03d)"><path fill="#000000" d="M 107.789062 137.542969 L 86.796875 150.644531 L 86.796875 163.742188 L 107.789062 150.644531 Z M 107.789062 137.542969 " fill-opacity="1" fill-rule="nonzero"/></g><g clip-path="url(#797e0a60b0)"><path fill="#000000" d="M 86.796875 137.542969 L 65.808594 150.644531 L 65.808594 163.742188 L 86.796875 150.644531 Z M 86.796875 137.542969 " fill-opacity="1" fill-rule="nonzero"/></g><g clip-path="url(#064c24910c)"><path fill="#000000" d="M 65.808594 137.542969 L 44.816406 150.644531 L 44.816406 163.742188 L 65.808594 150.644531 Z M 65.808594 137.542969 " fill-opacity="1" fill-rule="nonzero"/></g><path fill="#000000" d="M 151.410156 164.53125 L 151.410156 176.9375 L 146.039062 176.9375 L 146.039062 164.941406 C 146.039062 162.511719 144.882812 161.316406 142.65625 161.316406 C 141 161.316406 139.550781 162.015625 138.308594 163.417969 L 138.308594 176.945312 L 132.949219 176.945312 L 132.949219 164.945312 C 132.949219 162.511719 131.835938 161.316406 129.605469 161.316406 C 127.914062 161.316406 126.46875 162.058594 125.230469 163.542969 L 125.230469 176.945312 L 119.820312 176.945312 L 119.820312 157.152344 L 124.855469 157.152344 L 124.855469 159.011719 C 126.628906 157.542969 128.867188 156.753906 131.171875 156.785156 C 133.898438 156.785156 135.878906 157.695312 137.035156 159.507812 C 139.222656 157.691406 141.617188 156.785156 144.21875 156.785156 C 148.886719 156.78125 151.40625 159.511719 151.40625 164.53125 Z M 151.410156 164.53125 " fill-opacity="1" fill-rule="nonzero"/><path fill="#000000" d="M 175.003906 161.644531 C 177.382812 165.84375 176.691406 171.105469 173.3125 174.550781 C 171.453125 176.351562 168.96875 177.371094 166.375 177.398438 C 164.503906 177.441406 162.679688 176.796875 161.253906 175.582031 L 161.253906 186.179688 L 155.859375 186.179688 L 155.859375 157.148438 L 161.105469 157.148438 L 161.105469 158.675781 C 162.585938 157.4375 164.457031 156.765625 166.382812 156.777344 C 169.921875 156.742188 173.207031 158.597656 175.003906 161.640625 Z M 171 167.003906 C 171 163.5 168.515625 161.3125 165.722656 161.3125 C 163.984375 161.289062 162.324219 162.027344 161.179688 163.335938 L 161.179688 170.882812 C 162.28125 172.128906 163.867188 172.835938 165.527344 172.820312 C 168.566406 172.820312 171 170.636719 171 167.007812 Z M 171 167.003906 " fill-opacity="1" fill-rule="nonzero"/><path fill="#000000" d="M 199.121094 176.941406 L 194.058594 176.941406 L 194.058594 175.253906 C 192.605469 176.675781 190.640625 177.449219 188.605469 177.398438 C 185.054688 177.425781 181.765625 175.527344 180.019531 172.4375 C 179.058594 170.816406 178.570312 168.957031 178.613281 167.074219 C 178.613281 163.078125 180.679688 159.734375 183.734375 158.042969 C 185.230469 157.195312 186.925781 156.753906 188.648438 156.765625 C 190.640625 156.714844 192.570312 157.457031 194.015625 158.828125 L 194.015625 157.136719 L 199.132812 157.136719 L 199.121094 176.945312 Z M 193.796875 170.921875 L 193.796875 163.253906 C 192.667969 162.003906 191.058594 161.296875 189.375 161.3125 C 186.484375 161.3125 184.011719 163.539062 184.011719 167.085938 C 184.011719 170.628906 186.445312 172.820312 189.335938 172.820312 C 191.03125 172.878906 192.664062 172.183594 193.796875 170.921875 Z M 193.796875 170.921875 " fill-opacity="1" fill-rule="nonzero"/><path fill="#000000" d="M 208.785156 157.152344 L 208.785156 158.964844 C 210.390625 157.355469 212.167969 156.777344 215.222656 156.777344 L 215.222656 161.894531 C 214.738281 161.765625 214.238281 161.710938 213.738281 161.730469 C 211.953125 161.777344 210.277344 162.609375 209.15625 163.996094 L 209.15625 176.945312 L 203.746094 176.945312 L 203.746094 157.152344 Z M 208.785156 157.152344 " fill-opacity="1" fill-rule="nonzero"/><path fill="#000000" d="M 231.523438 157.148438 L 231.523438 161.605469 L 227.0625 161.605469 L 227.0625 176.945312 L 221.691406 176.945312 L 221.691406 161.605469 L 217.527344 161.605469 L 217.527344 157.148438 L 221.691406 157.148438 L 221.691406 150.554688 L 227.0625 150.554688 L 227.0625 157.148438 Z M 231.523438 157.148438 " fill-opacity="1" fill-rule="nonzero"/><path fill="#000000" d="M 234.566406 149.066406 L 240.222656 149.066406 L 240.222656 154.511719 L 234.566406 154.511719 Z M 240.097656 176.941406 L 240.097656 157.148438 L 234.691406 157.148438 L 234.691406 176.941406 Z M 240.097656 176.941406 " fill-opacity="1" fill-rule="nonzero"/><path fill="#000000" d="M 262.835938 172.941406 C 260.9375 175.664062 257.71875 177.355469 254.042969 177.355469 C 250.160156 177.355469 246.738281 175.539062 244.835938 172.390625 C 241.917969 167.460938 243.554688 161.101562 248.492188 158.1875 C 248.550781 158.152344 248.613281 158.117188 248.675781 158.082031 C 250.3125 157.203125 252.140625 156.746094 254.003906 156.761719 C 257.921875 156.761719 260.855469 158.246094 262.796875 161.257812 L 258.664062 163.8125 C 257.511719 162.164062 255.984375 161.332031 254.042969 161.332031 C 250.90625 161.332031 248.800781 163.765625 248.800781 167.148438 C 248.800781 170.527344 250.824219 172.753906 254.003906 172.753906 C 255.925781 172.792969 257.75 171.882812 258.875 170.324219 Z M 262.835938 172.941406 " fill-opacity="1" fill-rule="nonzero"/><path fill="#000000" d="M 266.386719 147.292969 L 271.753906 147.292969 L 271.753906 176.945312 L 266.386719 176.945312 Z M 266.386719 147.292969 " fill-opacity="1" fill-rule="nonzero"/><path fill="#000000" d="M 290.332031 170.453125 C 289.117188 171.933594 287.285156 172.773438 285.363281 172.730469 C 282.570312 172.730469 280.578125 171.207031 280.164062 168.320312 L 295.398438 168.320312 C 295.429688 168.046875 295.445312 167.769531 295.4375 167.496094 C 295.4375 160.9375 291.351562 156.730469 285.363281 156.730469 C 283.441406 156.6875 281.542969 157.171875 279.875 158.132812 C 276.652344 159.992188 274.878906 163.246094 274.878906 167.082031 C 274.851562 169.765625 275.875 172.355469 277.726562 174.296875 C 279.503906 176.160156 282.269531 177.304688 285.363281 177.304688 C 289 177.304688 292.136719 175.742188 294.121094 172.9375 L 290.335938 170.449219 Z M 285.5 161.148438 C 288.015625 161.148438 289.582031 162.34375 290.246094 164.777344 L 280.382812 164.777344 C 281.121094 162.421875 282.894531 161.144531 285.5 161.144531 Z M 285.5 161.148438 " fill-opacity="1" fill-rule="nonzero"/></svg>