<svg xmlns="http://www.w3.org/2000/svg" xml:space="preserve" width="456" height="456" style="fill-rule:evenodd;clip-rule:evenodd;stroke-linejoin:round;stroke-miterlimit:2" viewBox="0 0 456 456"><path d="M105.5 281.609q-4.054 0-6.893-2.702-2.838-2.772-2.838-6.583 0-3.88 2.838-6.651t6.893-2.772q4.123 0 6.96 2.772 2.907 2.771 2.906 6.651 0 3.81-2.905 6.583-2.839 2.702-6.96 2.702m108.06-1.525h-17.57l-46.291-73.03a32.7 32.7 0 0 1-2.906-5.75h-.406q.54 3.186.54 13.649v65.131h-15.543v-99.36h18.72l44.737 71.298q2.838 4.436 3.65 6.098h.27q-.675-3.949-.676-13.373v-64.023h15.475zm75.69 0h-54.4v-99.36h52.238v13.997h-36.154v28.13h33.316v13.928h-33.316v29.378h38.316zm77.314-85.363h-27.843v85.363h-16.084v-85.363h-27.775v-13.997h71.702z" style="fill:#fff;fill-rule:nonzero;stroke-width:.838376"/></svg>